<svg width="30" height="24" viewBox="0 0 30 24" fill="none" xmlns="http://www.w3.org/2000/svg">
<path d="M13.3571 23.0582C12.9687 23.4567 12.4419 23.6807 11.8926 23.6807C11.3433 23.6807 10.8165 23.4567 10.4281 23.0582L1.1065 13.4905C0.71816 13.0918 0.500003 12.5511 0.500003 11.9873C0.500003 11.4235 0.71816 10.8828 1.1065 10.4841L10.4281 0.91639C10.8188 0.529096 11.342 0.314792 11.8851 0.319634C12.4283 0.324479 12.9478 0.548085 13.3319 0.94229C13.7159 1.3365 13.9338 1.86976 13.9385 2.42723C13.9432 2.9847 13.7344 3.52177 13.3571 3.92277L7.74967 9.86112L27.4285 9.86112C27.9779 9.86112 28.5048 10.0851 28.8933 10.4839C29.2818 10.8826 29.5 11.4234 29.5 11.9873C29.5 12.5512 29.2818 13.092 28.8933 13.4907C28.5048 13.8894 27.9779 14.1134 27.4285 14.1134L7.74967 14.1134L13.3571 20.0518C13.7455 20.4505 13.9636 20.9912 13.9636 21.555C13.9636 22.1187 13.7455 22.6594 13.3571 23.0582Z" fill="#FCFCFC"/>
</svg>
