<svg width="20" height="14" viewBox="0 0 20 14" fill="none" xmlns="http://www.w3.org/2000/svg">
    <path
        d="M19.3203 6.75C19.2969 6.6875 18.6328 5.21875 17.164 3.74219C15.2031 1.78906 12.7265 0.75 9.99998 0.75C7.27342 0.75 4.79686 1.78906 2.83592 3.74219C1.36717 5.21875 0.703107 6.6875 0.67967 6.75C0.644789 6.82873 0.62677 6.91389 0.62677 7C0.62677 7.08611 0.644789 7.17127 0.67967 7.25C0.703107 7.3125 1.36717 8.78125 2.83592 10.2578C4.79686 12.2109 7.27342 13.25 9.99998 13.25C12.7265 13.25 15.2031 12.2109 17.164 10.2578C18.6328 8.78125 19.2969 7.3125 19.3203 7.25C19.3552 7.17127 19.3732 7.08611 19.3732 7C19.3732 6.91389 19.3552 6.82873 19.3203 6.75ZM9.99998 12C7.59373 12 5.49217 11.125 3.7578 9.39844C3.04102 8.69253 2.43285 7.88426 1.95311 7C2.4322 6.11298 3.0404 5.30205 3.7578 4.59375C5.49217 2.875 7.59373 2 9.99998 2C12.4062 2 14.5078 2.875 16.2422 4.59375C16.9596 5.30205 17.5678 6.11298 18.0469 7C17.4844 8.05469 15.0312 12 9.99998 12ZM9.99998 3.25C9.2583 3.25 8.53328 3.46993 7.91659 3.88199C7.29991 4.29404 6.81926 4.87971 6.53544 5.56494C6.25161 6.25016 6.17734 7.00416 6.32204 7.73159C6.46673 8.45902 6.82389 9.1272 7.34833 9.65165C7.87278 10.1761 8.54097 10.5333 9.26839 10.6779C9.99582 10.8226 10.7498 10.7484 11.435 10.4645C12.1203 10.1807 12.7059 9.70007 13.118 9.08339C13.5301 8.4667 13.75 7.74168 13.75 7C13.75 6.00544 13.3549 5.05161 12.6516 4.34835C11.9484 3.64509 10.9945 3.25 9.99998 3.25ZM9.99998 9.5C9.50553 9.5 9.02218 9.35338 8.61106 9.07867C8.19993 8.80397 7.8795 8.41352 7.69028 7.95671C7.50106 7.49989 7.45156 6.99723 7.54802 6.51227C7.64448 6.02732 7.88259 5.58186 8.23222 5.23223C8.58185 4.8826 9.0273 4.6445 9.51226 4.54804C9.99721 4.45157 10.4999 4.50108 10.9567 4.6903C11.4135 4.87952 11.804 5.19995 12.0787 5.61107C12.3534 6.0222 12.5 6.50555 12.5 7C12.4979 7.66241 12.2339 8.2971 11.7655 8.76549C11.2971 9.23389 10.6624 9.49794 9.99998 9.5Z"
        fill="#8F8F8F" />
</svg>