<svg width="4" height="13" viewBox="0 0 4 13" fill="none" xmlns="http://www.w3.org/2000/svg">
    <path
        d="M2.20122 12.5873C1.77447 12.5873 1.40928 12.4355 1.10565 12.1318C0.801491 11.8277 0.649414 11.4622 0.649414 11.0355C0.649414 10.6087 0.801491 10.2433 1.10565 9.93914C1.40928 9.6355 1.77447 9.48368 2.20122 9.48368C2.62797 9.48368 2.99342 9.6355 3.29757 9.93914C3.60121 10.2433 3.75302 10.6087 3.75302 11.0355C3.75302 11.4622 3.60121 11.8277 3.29757 12.1318C2.99342 12.4355 2.62797 12.5873 2.20122 12.5873ZM2.20122 7.93188C1.77447 7.93188 1.40928 7.7798 1.10565 7.47565C0.801491 7.17201 0.649414 6.80682 0.649414 6.38007C0.649414 5.95332 0.801491 5.58787 1.10565 5.28372C1.40928 4.98008 1.77447 4.82827 2.20122 4.82827C2.62797 4.82827 2.99342 4.98008 3.29757 5.28372C3.60121 5.58787 3.75302 5.95332 3.75302 6.38007C3.75302 6.80682 3.60121 7.17201 3.29757 7.47565C2.99342 7.7798 2.62797 7.93188 2.20122 7.93188ZM2.20122 3.27646C1.77447 3.27646 1.40928 3.12438 1.10565 2.82023C0.801491 2.51659 0.649414 2.1514 0.649414 1.72466C0.649414 1.29791 0.801491 0.932719 1.10565 0.629082C1.40928 0.324928 1.77447 0.172852 2.20122 0.172852C2.62797 0.172852 2.99342 0.324928 3.29757 0.629082C3.60121 0.932719 3.75302 1.29791 3.75302 1.72466C3.75302 2.1514 3.60121 2.51659 3.29757 2.82023C2.99342 3.12438 2.62797 3.27646 2.20122 3.27646Z"
        fill="#018864" />
</svg>