<svg width="17" height="16" viewBox="0 0 17 16" fill="none" xmlns="http://www.w3.org/2000/svg">
    <path
        d="M16.6319 7.92386C16.6319 8.05703 16.579 8.18474 16.4848 8.2789C16.3907 8.37306 16.263 8.42596 16.1298 8.42596H9.26776V15.288C9.26776 15.4212 9.21486 15.5489 9.1207 15.643C9.02653 15.7372 8.89882 15.7901 8.76566 15.7901C8.63249 15.7901 8.50478 15.7372 8.41062 15.643C8.31646 15.5489 8.26356 15.4212 8.26356 15.288V8.42596H1.40151C1.26835 8.42596 1.14064 8.37306 1.04648 8.2789C0.952314 8.18474 0.899414 8.05703 0.899414 7.92386C0.899414 7.7907 0.952314 7.66298 1.04648 7.56882C1.14064 7.47466 1.26835 7.42176 1.40151 7.42176H8.26356V0.559718C8.26356 0.426552 8.31646 0.298841 8.41062 0.204679C8.50478 0.110517 8.63249 0.0576172 8.76566 0.0576172C8.89882 0.0576172 9.02653 0.110517 9.1207 0.204679C9.21486 0.298841 9.26776 0.426552 9.26776 0.559718V7.42176H16.1298C16.263 7.42176 16.3907 7.47466 16.4848 7.56882C16.579 7.66298 16.6319 7.7907 16.6319 7.92386Z"
        fill="white" />
</svg>