<svg width="18" height="18" viewBox="0 0 18 18" fill="none" xmlns="http://www.w3.org/2000/svg">
    <path
        d="M17.635 16.6083L13.3811 12.3552C14.614 10.875 15.2288 8.97642 15.0976 7.05444C14.9664 5.13245 14.0992 3.33505 12.6765 2.03613C11.2538 0.737206 9.38515 0.0367772 7.45919 0.0805478C5.53323 0.124318 3.69828 0.908918 2.33607 2.27113C0.97386 3.63334 0.18926 5.46829 0.145489 7.39425C0.101719 9.32021 0.802147 11.1889 2.10107 12.6116C3.39999 14.0343 5.19739 14.9014 7.11938 15.0327C9.04136 15.1639 10.9399 14.5491 12.4202 13.3161L16.6732 17.57C16.7364 17.6332 16.8113 17.6832 16.8938 17.7174C16.9763 17.7516 17.0648 17.7692 17.1541 17.7692C17.2434 17.7692 17.3318 17.7516 17.4143 17.7174C17.4968 17.6832 17.5718 17.6332 17.635 17.57C17.6981 17.5069 17.7482 17.4319 17.7824 17.3494C17.8165 17.2669 17.8341 17.1784 17.8341 17.0891C17.8341 16.9998 17.8165 16.9114 17.7824 16.8289C17.7482 16.7464 17.6981 16.6714 17.635 16.6083ZM1.52167 7.57376C1.52167 6.36393 1.88043 5.18126 2.55258 4.17532C3.22473 3.16938 4.18008 2.38535 5.29782 1.92236C6.41556 1.45938 7.64549 1.33824 8.83208 1.57427C10.0187 1.8103 11.1086 2.39289 11.9641 3.24837C12.8196 4.10385 13.4022 5.1938 13.6382 6.38039C13.8742 7.56698 13.7531 8.79691 13.2901 9.91465C12.8271 11.0324 12.0431 11.9877 11.0371 12.6599C10.0312 13.332 8.84854 13.6908 7.6387 13.6908C6.01692 13.689 4.46207 13.0439 3.3153 11.8972C2.16852 10.7504 1.52347 9.19555 1.52167 7.57376Z"
        fill="#3D3D3D" />
</svg>