<svg width="9" height="7" viewBox="0 0 9 7" fill="none" xmlns="http://www.w3.org/2000/svg">
<path d="M8.7535 1.13979C8.59736 0.984579 8.38615 0.897461 8.166 0.897461C7.94584 0.897461 7.73463 0.984579 7.5785 1.13979L4.58683 4.08979L1.63683 1.13979C1.4807 0.984579 1.26949 0.897461 1.04933 0.897461C0.829176 0.897461 0.617966 0.984579 0.461831 1.13979C0.383724 1.21726 0.321728 1.30942 0.279421 1.41097C0.237114 1.51252 0.215332 1.62144 0.215332 1.73145C0.215332 1.84146 0.237114 1.95039 0.279421 2.05194C0.321728 2.15348 0.383724 2.24565 0.461831 2.32312L3.99516 5.85645C4.07263 5.93456 4.1648 5.99656 4.26635 6.03886C4.3679 6.08117 4.47682 6.10295 4.58683 6.10295C4.69684 6.10295 4.80576 6.08117 4.90731 6.03886C5.00886 5.99656 5.10103 5.93456 5.1785 5.85645L8.7535 2.32312C8.8316 2.24565 8.8936 2.15348 8.93591 2.05194C8.97821 1.95039 9 1.84146 9 1.73145C9 1.62144 8.97821 1.51252 8.93591 1.41097C8.8936 1.30942 8.8316 1.21726 8.7535 1.13979Z" fill="#075186"/>
</svg>
